<svg width="1920" height="240" viewBox="0 0 1920 240" fill="none" xmlns="http://www.w3.org/2000/svg">
<rect width="1920" height="240" rx="16" fill="#F1E8E5"/>
<path d="M716.182 103C715.939 99.9697 714.803 97.6061 712.773 95.9091C710.773 94.2121 707.727 93.3636 703.636 93.3636C701.03 93.3636 698.894 93.6818 697.227 94.3182C695.591 94.9242 694.379 95.7576 693.591 96.8182C692.803 97.8788 692.394 99.0909 692.364 100.455C692.303 101.576 692.5 102.591 692.955 103.5C693.439 104.379 694.197 105.182 695.227 105.909C696.258 106.606 697.576 107.242 699.182 107.818C700.788 108.394 702.697 108.909 704.909 109.364L712.545 111C717.697 112.091 722.106 113.53 725.773 115.318C729.439 117.106 732.439 119.212 734.773 121.636C737.106 124.03 738.818 126.727 739.909 129.727C741.03 132.727 741.606 136 741.636 139.545C741.606 145.667 740.076 150.848 737.045 155.091C734.015 159.333 729.682 162.561 724.045 164.773C718.439 166.985 711.697 168.091 703.818 168.091C695.727 168.091 688.667 166.894 682.636 164.5C676.636 162.106 671.97 158.424 668.636 153.455C665.333 148.455 663.667 142.061 663.636 134.273H687.636C687.788 137.121 688.5 139.515 689.773 141.455C691.045 143.394 692.833 144.864 695.136 145.864C697.47 146.864 700.242 147.364 703.455 147.364C706.152 147.364 708.409 147.03 710.227 146.364C712.045 145.697 713.424 144.773 714.364 143.591C715.303 142.409 715.788 141.061 715.818 139.545C715.788 138.121 715.318 136.879 714.409 135.818C713.53 134.727 712.076 133.758 710.045 132.909C708.015 132.03 705.273 131.212 701.818 130.455L692.545 128.455C684.303 126.667 677.803 123.682 673.045 119.5C668.318 115.288 665.97 109.545 666 102.273C665.97 96.3636 667.545 91.197 670.727 86.7727C673.939 82.3182 678.379 78.8485 684.045 76.3636C689.742 73.8788 696.273 72.6364 703.636 72.6364C711.152 72.6364 717.652 73.8939 723.136 76.4091C728.621 78.9242 732.848 82.4697 735.818 87.0455C738.818 91.5909 740.333 96.9091 740.364 103H716.182ZM751.25 167V73.9091H818.341V94.2727H776.523V110.273H814.886V130.636H776.523V146.636H818.159V167H751.25ZM855.057 167H827.784L858.511 73.9091H893.057L923.784 167H896.511L876.148 99.5455H875.42L855.057 167ZM849.966 130.273H901.239V149.182H849.966V130.273ZM1045.16 108.818H1019.52C1019.34 106.697 1018.86 104.773 1018.07 103.045C1017.31 101.318 1016.25 99.8333 1014.89 98.5909C1013.55 97.3182 1011.93 96.3485 1010.02 95.6818C1008.11 94.9848 1005.95 94.6364 1003.52 94.6364C999.28 94.6364 995.689 95.6667 992.75 97.7273C989.841 99.7879 987.629 102.742 986.114 106.591C984.629 110.439 983.886 115.061 983.886 120.455C983.886 126.152 984.644 130.924 986.159 134.773C987.705 138.591 989.932 141.47 992.841 143.409C995.75 145.318 999.25 146.273 1003.34 146.273C1005.67 146.273 1007.77 145.985 1009.61 145.409C1011.46 144.803 1013.07 143.939 1014.43 142.818C1015.8 141.697 1016.9 140.348 1017.75 138.773C1018.63 137.167 1019.22 135.364 1019.52 133.364L1045.16 133.545C1044.86 137.485 1043.75 141.5 1041.84 145.591C1039.93 149.652 1037.22 153.409 1033.7 156.864C1030.22 160.288 1025.9 163.045 1020.75 165.136C1015.6 167.227 1009.61 168.273 1002.8 168.273C994.25 168.273 986.583 166.439 979.795 162.773C973.038 159.106 967.689 153.712 963.75 146.591C959.841 139.47 957.886 130.758 957.886 120.455C957.886 110.091 959.886 101.364 963.886 94.2727C967.886 87.1515 973.28 81.7727 980.068 78.1364C986.856 74.4697 994.432 72.6364 1002.8 72.6364C1008.67 72.6364 1014.08 73.4394 1019.02 75.0454C1023.96 76.6515 1028.3 79 1032.02 82.0909C1035.75 85.1515 1038.75 88.9242 1041.02 93.4091C1043.3 97.8939 1044.67 103.03 1045.16 108.818ZM1076.44 168.091C1071.99 168.091 1068.05 167.364 1064.62 165.909C1061.23 164.424 1058.56 162.182 1056.62 159.182C1054.69 156.182 1053.72 152.364 1053.72 147.727C1053.72 143.909 1054.37 140.652 1055.67 137.955C1056.97 135.227 1058.79 133 1061.12 131.273C1063.46 129.545 1066.17 128.227 1069.26 127.318C1072.38 126.409 1075.75 125.818 1079.35 125.545C1083.26 125.242 1086.4 124.879 1088.76 124.455C1091.16 124 1092.88 123.379 1093.94 122.591C1095 121.773 1095.53 120.697 1095.53 119.364V119.182C1095.53 117.364 1094.84 115.97 1093.44 115C1092.05 114.03 1090.26 113.545 1088.08 113.545C1085.69 113.545 1083.73 114.076 1082.22 115.136C1080.73 116.167 1079.84 117.758 1079.53 119.909H1056.44C1056.75 115.667 1058.09 111.758 1060.49 108.182C1062.91 104.576 1066.44 101.697 1071.08 99.5455C1075.72 97.3636 1081.5 96.2727 1088.44 96.2727C1093.44 96.2727 1097.93 96.8636 1101.9 98.0455C1105.87 99.197 1109.25 100.818 1112.03 102.909C1114.82 104.97 1116.94 107.394 1118.4 110.182C1119.88 112.939 1120.62 115.939 1120.62 119.182V167H1097.17V157.182H1096.62C1095.23 159.788 1093.53 161.894 1091.53 163.5C1089.56 165.106 1087.31 166.273 1084.76 167C1082.25 167.727 1079.47 168.091 1076.44 168.091ZM1084.62 152.273C1086.53 152.273 1088.32 151.879 1089.99 151.091C1091.69 150.303 1093.06 149.167 1094.12 147.682C1095.19 146.197 1095.72 144.394 1095.72 142.273V136.455C1095.05 136.727 1094.34 136.985 1093.58 137.227C1092.85 137.47 1092.06 137.697 1091.22 137.909C1090.4 138.121 1089.52 138.318 1088.58 138.5C1087.67 138.682 1086.72 138.848 1085.72 139C1083.78 139.303 1082.19 139.803 1080.94 140.5C1079.73 141.167 1078.82 142 1078.22 143C1077.64 143.97 1077.35 145.061 1077.35 146.273C1077.35 148.212 1078.03 149.697 1079.4 150.727C1080.76 151.758 1082.5 152.273 1084.62 152.273ZM1174.25 97.1818V115.364H1128.25V97.1818H1174.25ZM1137.16 80.4545H1162.25V144.545C1162.25 145.515 1162.42 146.333 1162.75 147C1163.08 147.636 1163.6 148.121 1164.3 148.455C1164.99 148.758 1165.89 148.909 1166.98 148.909C1167.73 148.909 1168.61 148.818 1169.61 148.636C1170.64 148.455 1171.4 148.303 1171.89 148.182L1175.52 165.818C1174.4 166.152 1172.8 166.561 1170.7 167.045C1168.64 167.53 1166.19 167.848 1163.34 168C1157.58 168.303 1152.75 167.712 1148.84 166.227C1144.93 164.712 1141.99 162.333 1140.02 159.091C1138.05 155.848 1137.1 151.788 1137.16 146.909V80.4545ZM1217.19 168.273C1209.74 168.273 1203.31 166.848 1197.92 164C1192.56 161.121 1188.42 157 1185.51 151.636C1182.63 146.242 1181.19 139.788 1181.19 132.273C1181.19 125.061 1182.65 118.758 1185.56 113.364C1188.47 107.97 1192.57 103.773 1197.88 100.773C1203.18 97.7727 1209.44 96.2727 1216.65 96.2727C1221.92 96.2727 1226.69 97.0909 1230.97 98.7273C1235.24 100.364 1238.89 102.742 1241.92 105.864C1244.95 108.955 1247.28 112.712 1248.92 117.136C1250.56 121.561 1251.38 126.545 1251.38 132.091V137.909H1189.01V124.091H1228.28C1228.25 122.091 1227.74 120.333 1226.74 118.818C1225.77 117.273 1224.45 116.076 1222.78 115.227C1221.15 114.348 1219.28 113.909 1217.19 113.909C1215.16 113.909 1213.3 114.348 1211.6 115.227C1209.91 116.076 1208.54 117.258 1207.51 118.773C1206.51 120.288 1205.98 122.061 1205.92 124.091V139C1205.92 141.242 1206.39 143.242 1207.33 145C1208.27 146.758 1209.62 148.136 1211.38 149.136C1213.13 150.136 1215.25 150.636 1217.74 150.636C1219.47 150.636 1221.04 150.394 1222.47 149.909C1223.92 149.424 1225.16 148.727 1226.19 147.818C1227.22 146.879 1227.98 145.758 1228.47 144.455H1251.38C1250.59 149.303 1248.72 153.515 1245.78 157.091C1242.84 160.636 1238.95 163.394 1234.1 165.364C1229.28 167.303 1223.65 168.273 1217.19 168.273ZM1261.61 167V97.1818H1285.98V110.455H1286.7C1287.98 105.545 1289.99 101.955 1292.75 99.6818C1295.54 97.4091 1298.8 96.2727 1302.52 96.2727C1303.61 96.2727 1304.69 96.3636 1305.75 96.5455C1306.84 96.697 1307.89 96.9242 1308.89 97.2273V118.636C1307.64 118.212 1306.11 117.894 1304.3 117.682C1302.48 117.47 1300.92 117.364 1299.61 117.364C1297.16 117.364 1294.95 117.924 1292.98 119.045C1291.04 120.136 1289.51 121.682 1288.39 123.682C1287.27 125.652 1286.7 127.97 1286.7 130.636V167H1261.61ZM1317.11 167V97.1818H1342.2V167H1317.11ZM1329.66 89.9091C1326.27 89.9091 1323.36 88.7879 1320.93 86.5455C1318.51 84.303 1317.3 81.6061 1317.3 78.4545C1317.3 75.303 1318.51 72.6061 1320.93 70.3636C1323.36 68.1212 1326.27 67 1329.66 67C1333.08 67 1335.99 68.1212 1338.39 70.3636C1340.81 72.6061 1342.02 75.303 1342.02 78.4545C1342.02 81.6061 1340.81 84.303 1338.39 86.5455C1335.99 88.7879 1333.08 89.9091 1329.66 89.9091ZM1380.08 127.727V167H1354.99V97.1818H1378.81V110.455H1379.53C1381.05 106.03 1383.72 102.561 1387.53 100.045C1391.38 97.5303 1395.87 96.2727 1400.99 96.2727C1405.93 96.2727 1410.22 97.4091 1413.85 99.6818C1417.52 101.924 1420.35 105.015 1422.35 108.955C1424.38 112.894 1425.38 117.394 1425.35 122.455V167H1400.26V127.727C1400.29 124.273 1399.41 121.561 1397.62 119.591C1395.87 117.621 1393.41 116.636 1390.26 116.636C1388.2 116.636 1386.4 117.091 1384.85 118C1383.34 118.879 1382.17 120.152 1381.35 121.818C1380.53 123.455 1380.11 125.424 1380.08 127.727ZM1471.38 194.636C1464.38 194.636 1458.38 193.636 1453.38 191.636C1448.41 189.667 1444.54 186.939 1441.78 183.455C1439.06 180 1437.53 176.03 1437.19 171.545H1461.38C1461.62 173.03 1462.22 174.227 1463.19 175.136C1464.16 176.045 1465.41 176.697 1466.92 177.091C1468.47 177.515 1470.19 177.727 1472.1 177.727C1475.34 177.727 1478.03 176.939 1480.15 175.364C1482.3 173.788 1483.38 170.939 1483.38 166.818V155H1482.65C1481.74 157.364 1480.34 159.379 1478.47 161.045C1476.59 162.682 1474.33 163.939 1471.69 164.818C1469.06 165.667 1466.16 166.091 1463.01 166.091C1458.04 166.091 1453.47 164.939 1449.28 162.636C1445.13 160.333 1441.8 156.682 1439.28 151.682C1436.8 146.682 1435.56 140.152 1435.56 132.091C1435.56 123.667 1436.86 116.818 1439.47 111.545C1442.1 106.273 1445.5 102.409 1449.65 99.9545C1453.83 97.5 1458.22 96.2727 1462.83 96.2727C1466.28 96.2727 1469.31 96.8788 1471.92 98.0909C1474.53 99.2727 1476.71 100.864 1478.47 102.864C1480.22 104.833 1481.56 107 1482.47 109.364H1483.01V97.1818H1508.1V166.818C1508.1 172.727 1506.57 177.742 1503.51 181.864C1500.48 186.015 1496.21 189.182 1490.69 191.364C1485.18 193.545 1478.74 194.636 1471.38 194.636ZM1472.28 148.273C1474.59 148.273 1476.56 147.636 1478.19 146.364C1479.86 145.061 1481.13 143.212 1482.01 140.818C1482.92 138.394 1483.38 135.485 1483.38 132.091C1483.38 128.636 1482.92 125.682 1482.01 123.227C1481.13 120.742 1479.86 118.848 1478.19 117.545C1476.56 116.212 1474.59 115.545 1472.28 115.545C1469.98 115.545 1468.01 116.212 1466.38 117.545C1464.77 118.848 1463.53 120.742 1462.65 123.227C1461.8 125.682 1461.38 128.636 1461.38 132.091C1461.38 135.545 1461.8 138.485 1462.65 140.909C1463.53 143.303 1464.77 145.136 1466.38 146.409C1468.01 147.652 1469.98 148.273 1472.28 148.273Z" fill="#2C7537"/>
<path d="M485.489 167.479C479.806 167.492 474.269 165.676 469.696 162.301C465.124 158.926 461.757 154.169 460.094 148.733C458.431 143.298 458.56 137.472 460.461 132.115C462.362 126.758 465.935 122.155 470.652 118.984C467.743 115.35 465.996 110.924 465.638 106.282C465.279 101.641 466.325 96.9989 468.641 92.9605C470.956 88.9222 474.433 85.6744 478.619 83.6398C482.806 81.6052 487.507 80.878 492.113 81.5529V81.3541C492.113 76.0829 494.206 71.0277 497.933 67.3004C501.659 63.5731 506.713 61.4791 511.984 61.4791C517.254 61.4791 522.308 63.5731 526.035 67.3004C529.761 71.0277 531.855 76.0829 531.855 81.3541V81.6191C536.46 80.9442 541.162 81.6714 545.348 83.706C549.534 85.7406 553.011 88.9884 555.327 93.0268C557.642 97.0651 558.688 101.707 558.33 106.348C557.971 110.99 556.224 115.416 553.316 119.05C558.003 122.231 561.548 126.831 563.43 132.175C565.312 137.519 565.432 143.326 563.772 148.743C562.112 154.16 558.76 158.903 554.208 162.275C549.656 165.647 544.143 167.471 538.479 167.479H485.489Z" stroke="#2C7537" stroke-width="22" stroke-linecap="round" stroke-linejoin="round"/>
<path d="M485.489 167.479C479.806 167.492 474.269 165.676 469.696 162.301C465.124 158.926 461.757 154.169 460.094 148.733C458.431 143.298 458.56 137.472 460.461 132.115C462.362 126.758 465.935 122.155 470.652 118.984C467.743 115.35 465.996 110.924 465.638 106.282C465.279 101.641 466.325 96.9989 468.641 92.9605C470.956 88.9222 474.433 85.6744 478.619 83.6398C482.806 81.6052 487.507 80.878 492.113 81.5529V81.3541C492.113 76.0829 494.206 71.0277 497.933 67.3004C501.659 63.5731 506.713 61.4791 511.984 61.4791C517.254 61.4791 522.308 63.5731 526.035 67.3004C529.761 71.0277 531.855 76.0829 531.855 81.3541V81.6191C536.46 80.9442 541.162 81.6714 545.348 83.706C549.534 85.7406 553.011 88.9884 555.327 93.0268C557.642 97.0651 558.688 101.707 558.33 106.348C557.971 110.99 556.224 115.416 553.316 119.05C558.003 122.231 561.548 126.831 563.43 132.175C565.312 137.519 565.432 143.326 563.772 148.743C562.112 154.16 558.76 158.903 554.208 162.275C549.656 165.647 544.143 167.471 538.479 167.479H485.489Z" stroke="#2C7537" stroke-width="22" stroke-linecap="round" stroke-linejoin="round"/>
<path d="M511.935 167.479V187.354" stroke="#2C7537" stroke-width="22" stroke-linecap="round" stroke-linejoin="round"/>
</svg>
